<svg width="128" height="128" viewBox="0 0 128 128" fill="none" xmlns="http://www.w3.org/2000/svg">
<path d="M93.3537 91.8963C93.3537 92.2635 93.1963 92.6608 92.8191 93.0909C92.439 93.5242 91.8558 93.966 91.0641 94.4026C89.481 95.2756 87.1572 96.0779 84.2428 96.7577C78.422 98.1154 70.3554 98.9599 61.4278 98.9599C52.5002 98.9599 44.4337 98.1154 38.6129 96.7577C35.6984 96.0779 33.3746 95.2756 31.7916 94.4026C30.9999 93.966 30.4167 93.5242 30.0366 93.0909C29.6593 92.6608 29.502 92.2635 29.502 91.8963C29.502 91.529 29.6593 91.1317 30.0366 90.7017C30.4167 90.2684 30.9999 89.8266 31.7916 89.39C33.3746 88.517 35.6984 87.7147 38.6129 87.0349C44.4337 85.6771 52.5002 84.8326 61.4278 84.8326C70.3554 84.8326 78.422 85.6771 84.2428 87.0349C87.1572 87.7147 89.481 88.517 91.0641 89.39C91.8558 89.8266 92.439 90.2684 92.8191 90.7017C93.1963 91.1317 93.3537 91.529 93.3537 91.8963Z" fill="#B73DC2" stroke="#141414"/>
<path d="M93.8531 75.5844H29.0015V91.8965H93.8531V75.5844Z" fill="#B73DC2"/>
<path d="M93.3537 75.584C93.3537 75.9513 93.1963 76.3486 92.8191 76.7786C92.439 77.2119 91.8558 77.6537 91.0641 78.0903C89.481 78.9633 87.1572 79.7656 84.2428 80.4454C78.422 81.8032 70.3554 82.6477 61.4278 82.6477C52.5002 82.6477 44.4337 81.8032 38.6129 80.4454C35.6984 79.7656 33.3746 78.9633 31.7916 78.0903C30.9999 77.6537 30.4167 77.2119 30.0366 76.7786C29.6593 76.3486 29.502 75.9513 29.502 75.584C29.502 75.2168 29.6593 74.8195 30.0366 74.3894C30.4167 73.9562 30.9999 73.5144 31.7916 73.0777C33.3746 72.2047 35.6984 71.4025 38.6129 70.7227C44.4337 69.3649 52.5002 68.5204 61.4278 68.5204C70.3554 68.5204 78.422 69.3649 84.2428 70.7227C87.1572 71.4025 89.481 72.2047 91.0641 73.0777C91.8558 73.5144 92.439 73.9562 92.8191 74.3894C93.1963 74.8195 93.3537 75.2168 93.3537 75.584Z" fill="#B73DC2" stroke="#141414"/>
<path d="M93.8531 59.2721H29.0015V75.5843H93.8531V59.2721Z" fill="#B73DC2"/>
<path d="M93.3537 59.2718C93.3537 59.639 93.1963 60.0363 92.8191 60.4664C92.439 60.8996 91.8558 61.3414 91.0641 61.7781C89.481 62.6511 87.1572 63.4533 84.2428 64.1332C78.422 65.4909 70.3554 66.3354 61.4278 66.3354C52.5002 66.3354 44.4337 65.4909 38.6129 64.1332C35.6984 63.4533 33.3746 62.6511 31.7916 61.7781C30.9999 61.3414 30.4167 60.8996 30.0366 60.4664C29.6593 60.0363 29.502 59.639 29.502 59.2718C29.502 58.9045 29.6593 58.5072 30.0366 58.0772C30.4167 57.6439 30.9999 57.2021 31.7916 56.7655C33.3746 55.8925 35.6984 55.0902 38.6129 54.4104C44.4337 53.0526 52.5002 52.2081 61.4278 52.2081C70.3554 52.2081 78.422 53.0526 84.2428 54.4104C87.1572 55.0902 89.481 55.8925 91.0641 56.7655C91.8558 57.2021 92.439 57.6439 92.8191 58.0772C93.1963 58.5072 93.3537 58.9045 93.3537 59.2718Z" fill="#B73DC2" stroke="#141414"/>
<path d="M93.8531 42.9598H29.0015V59.272H93.8531V42.9598Z" fill="#B73DC2"/>
<path d="M93.3537 42.96C93.3537 43.3273 93.1963 43.7246 92.8191 44.1546C92.439 44.5879 91.8558 45.0297 91.0641 45.4663C89.481 46.3393 87.1572 47.1416 84.2428 47.8214C78.422 49.1792 70.3554 50.0237 61.4278 50.0237C52.5002 50.0237 44.4337 49.1792 38.6129 47.8214C35.6984 47.1416 33.3746 46.3393 31.7916 45.4663C30.9999 45.0297 30.4167 44.5879 30.0366 44.1546C29.6593 43.7246 29.502 43.3273 29.502 42.96C29.502 42.5928 29.6593 42.1955 30.0366 41.7654C30.4167 41.3321 30.9999 40.8903 31.7916 40.4537C33.3746 39.5807 35.6984 38.7784 38.6129 38.0986C44.4337 36.7409 52.5002 35.8964 61.4278 35.8964C70.3554 35.8964 78.422 36.7409 84.2428 38.0986C87.1572 38.7784 89.481 39.5807 91.0641 40.4537C91.8558 40.8903 92.439 41.3321 92.8191 41.7654C93.1963 42.1955 93.3537 42.5928 93.3537 42.96Z" fill="#B73DC2" stroke="#141414"/>
<path d="M29.4961 59.2721V91.8962" stroke="#141414"/>
<path d="M29.4961 42.9598V59.5126" stroke="#141414"/>
<path d="M93.4131 76.2379V92.4276" stroke="#141414"/>
<path d="M93.4131 43.0824V59.2721" stroke="#141414"/>
<path d="M93.4131 59.9257V76.1154" stroke="#141414"/>
<mask id="path-13-inside-1_765_25375" fill="white">
<path fill-rule="evenodd" clip-rule="evenodd" d="M90.4419 73.4017H98.2554V77.8784C99.1777 78.1547 100.059 78.5265 100.887 78.9821L104.469 75.4001L109.994 80.9251L106.368 84.5517C106.776 85.3233 107.112 86.1391 107.367 86.9899H111.844V94.8033H107.367C107.133 95.5842 106.831 96.3356 106.467 97.0505L109.994 100.578L104.469 106.103L101.073 102.707C100.191 103.21 99.2471 103.618 98.2554 103.915V108.392H90.4419V103.915C89.4503 103.617 88.5063 103.21 87.6242 102.707L84.2281 106.103L78.7031 100.578L82.2308 97.0503C81.867 96.3355 81.5647 95.5841 81.3307 94.8033H76.854V86.9899H81.3307C81.5857 86.1392 81.9217 85.3235 82.3299 84.5519L78.7031 80.9251L84.2281 75.4001L87.8102 78.9823C88.6386 78.5267 89.5196 78.155 90.4419 77.8786V73.4017ZM94.3491 96.6595C97.5317 96.6595 100.112 94.0793 100.112 90.8966C100.112 87.7138 97.5317 85.1336 94.3491 85.1336C91.166 85.1336 88.5859 87.7138 88.5859 90.8966C88.5859 94.0793 91.166 96.6595 94.3491 96.6595Z"/>
</mask>
<path fill-rule="evenodd" clip-rule="evenodd" d="M90.4419 73.4017H98.2554V77.8784C99.1777 78.1547 100.059 78.5265 100.887 78.9821L104.469 75.4001L109.994 80.9251L106.368 84.5517C106.776 85.3233 107.112 86.1391 107.367 86.9899H111.844V94.8033H107.367C107.133 95.5842 106.831 96.3356 106.467 97.0505L109.994 100.578L104.469 106.103L101.073 102.707C100.191 103.21 99.2471 103.618 98.2554 103.915V108.392H90.4419V103.915C89.4503 103.617 88.5063 103.21 87.6242 102.707L84.2281 106.103L78.7031 100.578L82.2308 97.0503C81.867 96.3355 81.5647 95.5841 81.3307 94.8033H76.854V86.9899H81.3307C81.5857 86.1392 81.9217 85.3235 82.3299 84.5519L78.7031 80.9251L84.2281 75.4001L87.8102 78.9823C88.6386 78.5267 89.5196 78.155 90.4419 77.8786V73.4017ZM94.3491 96.6595C97.5317 96.6595 100.112 94.0793 100.112 90.8966C100.112 87.7138 97.5317 85.1336 94.3491 85.1336C91.166 85.1336 88.5859 87.7138 88.5859 90.8966C88.5859 94.0793 91.166 96.6595 94.3491 96.6595Z" fill="#7E7E7E"/>
<path d="M98.2554 73.4017H99.2554V72.4017H98.2554V73.4017ZM90.4419 73.4017V72.4017H89.4419V73.4017H90.4419ZM98.2554 77.8784H97.2554V78.6226L97.9684 78.8363L98.2554 77.8784ZM100.887 78.9821L100.405 79.8583L101.063 80.2202L101.594 79.6892L100.887 78.9821ZM104.469 75.4001L105.176 74.693L104.469 73.9859L103.762 74.693L104.469 75.4001ZM109.994 80.9251L110.701 81.6322L111.409 80.9251L110.701 80.218L109.994 80.9251ZM106.368 84.5517L105.661 83.8446L105.139 84.3666L105.484 85.0193L106.368 84.5517ZM107.367 86.9899L106.409 87.2769L106.623 87.9899H107.367V86.9899ZM111.844 86.9899H112.844V85.9899H111.844V86.9899ZM111.844 94.8033V95.8033H112.844V94.8033H111.844ZM107.367 94.8033V93.8033H106.623L106.409 94.5162L107.367 94.8033ZM106.467 97.0505L105.576 96.597L105.246 97.2442L105.76 97.7576L106.467 97.0505ZM109.994 100.578L110.701 101.285L111.409 100.578L110.701 99.8709L109.994 100.578ZM104.469 106.103L103.762 106.81L104.469 107.517L105.176 106.81L104.469 106.103ZM101.073 102.707L101.78 102L101.241 101.46L100.578 101.838L101.073 102.707ZM98.2554 103.915L97.9684 102.957L97.2554 103.171V103.915H98.2554ZM98.2554 108.392V109.392H99.2554V108.392H98.2554ZM90.4419 108.392H89.4419V109.392H90.4419V108.392ZM90.4419 103.915H91.4419V103.17L90.729 102.957L90.4419 103.915ZM87.6242 102.707L88.1198 101.838L87.4569 101.46L86.9171 102L87.6242 102.707ZM84.2281 106.103L83.521 106.81L84.2281 107.517L84.9352 106.81L84.2281 106.103ZM78.7031 100.578L77.996 99.8709L77.2889 100.578L77.996 101.285L78.7031 100.578ZM82.2308 97.0503L82.9379 97.7574L83.4513 97.244L83.122 96.5968L82.2308 97.0503ZM81.3307 94.8033L82.2886 94.5162L82.075 93.8033H81.3307V94.8033ZM76.854 94.8033H75.854V95.8033H76.854V94.8033ZM76.854 86.9899V85.9899H75.854V86.9899H76.854ZM81.3307 86.9899V87.9899H82.075L82.2886 87.2769L81.3307 86.9899ZM82.3299 84.5519L83.2138 85.0195L83.5591 84.3668L83.037 83.8448L82.3299 84.5519ZM78.7031 80.9251L77.996 80.218L77.2889 80.9251L77.996 81.6322L78.7031 80.9251ZM84.2281 75.4001L84.9352 74.693L84.2281 73.9859L83.521 74.693L84.2281 75.4001ZM87.8102 78.9823L87.1031 79.6894L87.6341 80.2204L88.2921 79.8585L87.8102 78.9823ZM90.4419 77.8786L90.729 78.8365L91.4419 78.6228V77.8786H90.4419ZM98.2554 72.4017H90.4419V74.4017H98.2554V72.4017ZM99.2554 77.8784V73.4017H97.2554V77.8784H99.2554ZM101.369 78.1059C100.48 77.6166 99.5333 77.2173 98.5424 76.9204L97.9684 78.8363C98.8222 79.0921 99.6381 79.4363 100.405 79.8583L101.369 78.1059ZM103.762 74.693L100.18 78.275L101.594 79.6892L105.176 76.1073L103.762 74.693ZM110.701 80.218L105.176 74.693L103.762 76.1073L109.287 81.6322L110.701 80.218ZM107.075 85.2588L110.701 81.6322L109.287 80.218L105.661 83.8446L107.075 85.2588ZM108.325 86.7028C108.051 85.7889 107.69 84.9127 107.252 84.0841L105.484 85.0193C105.862 85.734 106.173 86.4893 106.409 87.2769L108.325 86.7028ZM111.844 85.9899H107.367V87.9899H111.844V85.9899ZM112.844 94.8033V86.9899H110.844V94.8033H112.844ZM107.367 95.8033H111.844V93.8033H107.367V95.8033ZM107.358 97.504C107.749 96.7363 108.074 95.9292 108.325 95.0903L106.409 94.5162C106.192 95.2392 105.913 95.9349 105.576 96.597L107.358 97.504ZM110.701 99.8709L107.174 96.3434L105.76 97.7576L109.287 101.285L110.701 99.8709ZM105.176 106.81L110.701 101.285L109.287 99.8709L103.762 105.396L105.176 106.81ZM100.366 103.414L103.762 106.81L105.176 105.396L101.78 102L100.366 103.414ZM98.5424 104.873C99.6078 104.554 100.622 104.116 101.569 103.575L100.578 101.838C99.7606 102.305 98.8864 102.682 97.9684 102.957L98.5424 104.873ZM99.2554 108.392V103.915H97.2554V108.392H99.2554ZM90.4419 109.392H98.2554V107.392H90.4419V109.392ZM89.4419 103.915V108.392H91.4419V103.915H89.4419ZM87.1286 103.575C88.0758 104.116 89.0896 104.553 90.1548 104.873L90.729 102.957C89.811 102.682 88.9369 102.304 88.1198 101.838L87.1286 103.575ZM86.9171 102L83.521 105.396L84.9352 106.81L88.3313 103.414L86.9171 102ZM84.9352 105.396L79.4102 99.8709L77.996 101.285L83.521 106.81L84.9352 105.396ZM79.4102 101.285L82.9379 97.7574L81.5237 96.3432L77.996 99.8709L79.4102 101.285ZM80.3728 95.0903C80.6242 95.9291 80.9489 96.7361 81.3395 97.5038L83.122 96.5968C82.7852 95.9348 82.5052 95.2391 82.2886 94.5162L80.3728 95.0903ZM76.854 95.8033H81.3307V93.8033H76.854V95.8033ZM75.854 86.9899V94.8033H77.854V86.9899H75.854ZM81.3307 85.9899H76.854V87.9899H81.3307V85.9899ZM81.4459 84.0843C81.0076 84.9129 80.6467 85.7889 80.3728 86.7028L82.2886 87.2769C82.5247 86.4894 82.8358 85.7341 83.2138 85.0195L81.4459 84.0843ZM77.996 81.6322L81.6228 85.259L83.037 83.8448L79.4102 80.218L77.996 81.6322ZM83.521 74.693L77.996 80.218L79.4102 81.6322L84.9352 76.1073L83.521 74.693ZM88.5173 78.2752L84.9352 74.693L83.521 76.1073L87.1031 79.6894L88.5173 78.2752ZM90.1548 76.9207C89.1641 77.2176 88.2178 77.6168 87.3283 78.106L88.2921 79.8585C89.0594 79.4365 89.8752 79.0923 90.729 78.8365L90.1548 76.9207ZM89.4419 73.4017V77.8786H91.4419V73.4017H89.4419ZM99.1118 90.8966C99.1118 93.5271 96.9794 95.6595 94.3491 95.6595V97.6595C98.084 97.6595 101.112 94.6316 101.112 90.8966H99.1118ZM94.3491 86.1336C96.9794 86.1336 99.1118 88.2661 99.1118 90.8966H101.112C101.112 87.1616 98.084 84.1336 94.3491 84.1336V86.1336ZM89.5859 90.8966C89.5859 88.2661 91.7183 86.1336 94.3491 86.1336V84.1336C90.6137 84.1336 87.5859 87.1615 87.5859 90.8966H89.5859ZM94.3491 95.6595C91.7183 95.6595 89.5859 93.527 89.5859 90.8966H87.5859C87.5859 94.6316 90.6137 97.6595 94.3491 97.6595V95.6595Z" fill="#141414" mask="url(#path-13-inside-1_765_25375)"/>
<path d="M90.5088 74.3821H97.4048L95.9453 75.5228H88.9248L90.5088 74.3821Z" fill="#7E7E7E"/>
<path d="M76.6229 87.9862H79.8979L79.2048 89.153H75.8706L76.6229 87.9862Z" fill="#7E7E7E"/>
<path d="M109.789 93.525L109.789 95.6567L110.847 95.2056L110.847 93.0354L109.789 93.525Z" fill="#7E7E7E"/>
<path d="M96.3125 107.412L96.3125 109.544L97.2598 109.092L97.2598 106.922L96.3125 107.412Z" fill="#7E7E7E"/>
<path d="M88.9082 75.7974L90.8101 73.7393" stroke="#141414"/>
<path d="M85.582 81.8473L87.4839 79.7892" stroke="#141414"/>
<path d="M96.1279 80.2014L98.0298 78.1433" stroke="#141414"/>
<path d="M104.804 89.2715L106.706 87.2134" stroke="#141414"/>
<path d="M103.853 99.3792L105.755 97.321" stroke="#141414"/>
<path d="M95.9829 110.056L97.8848 107.998" stroke="#141414"/>
<path d="M109.243 89.6116L111.145 87.5535" stroke="#141414"/>
<path d="M109.605 96.4636L111.471 94.4515" stroke="#141414"/>
<path d="M95.5029 75.7974L97.4048 73.7393" stroke="#141414"/>
<path d="M75.3491 89.3261L77.2219 87.3351" stroke="#141414"/>
<mask id="path-29-inside-2_765_25375" fill="white">
<path fill-rule="evenodd" clip-rule="evenodd" d="M88.5703 75.4017H96.3838V79.8784C97.3062 80.1547 98.1873 80.5265 99.0158 80.9821L102.598 77.4001L108.123 82.9251L104.496 86.5517C104.904 87.3233 105.24 88.1391 105.495 88.9899H109.972V96.8033H105.495C105.261 97.5842 104.959 98.3356 104.595 99.0505L108.123 102.578L102.598 108.103L99.2018 104.707C98.3196 105.21 97.3755 105.618 96.3838 105.915V110.392H88.5703V105.915C87.5787 105.617 86.6347 105.21 85.7526 104.707L82.3565 108.103L76.8315 102.578L80.3592 99.0503C79.9954 98.3355 79.6931 97.5841 79.4591 96.8033H74.9824V88.9899H79.4591C79.7141 88.1392 80.0501 87.3235 80.4583 86.5519L76.8315 82.9251L82.3565 77.4001L85.9386 80.9823C86.767 80.5267 87.6481 80.155 88.5703 79.8786V75.4017ZM92.4775 98.6595C95.6601 98.6595 98.2402 96.0793 98.2402 92.8966C98.2402 89.7138 95.6601 87.1336 92.4775 87.1336C89.2944 87.1336 86.7143 89.7138 86.7143 92.8966C86.7143 96.0793 89.2944 98.6595 92.4775 98.6595Z"/>
</mask>
<path fill-rule="evenodd" clip-rule="evenodd" d="M88.5703 75.4017H96.3838V79.8784C97.3062 80.1547 98.1873 80.5265 99.0158 80.9821L102.598 77.4001L108.123 82.9251L104.496 86.5517C104.904 87.3233 105.24 88.1391 105.495 88.9899H109.972V96.8033H105.495C105.261 97.5842 104.959 98.3356 104.595 99.0505L108.123 102.578L102.598 108.103L99.2018 104.707C98.3196 105.21 97.3755 105.618 96.3838 105.915V110.392H88.5703V105.915C87.5787 105.617 86.6347 105.21 85.7526 104.707L82.3565 108.103L76.8315 102.578L80.3592 99.0503C79.9954 98.3355 79.6931 97.5841 79.4591 96.8033H74.9824V88.9899H79.4591C79.7141 88.1392 80.0501 87.3235 80.4583 86.5519L76.8315 82.9251L82.3565 77.4001L85.9386 80.9823C86.767 80.5267 87.6481 80.155 88.5703 79.8786V75.4017ZM92.4775 98.6595C95.6601 98.6595 98.2402 96.0793 98.2402 92.8966C98.2402 89.7138 95.6601 87.1336 92.4775 87.1336C89.2944 87.1336 86.7143 89.7138 86.7143 92.8966C86.7143 96.0793 89.2944 98.6595 92.4775 98.6595Z" fill="#D9D9D9"/>
<path d="M96.3838 75.4017H97.3838V74.4017H96.3838V75.4017ZM88.5703 75.4017V74.4017H87.5703V75.4017H88.5703ZM96.3838 79.8784H95.3838V80.6226L96.0968 80.8363L96.3838 79.8784ZM99.0158 80.9821L98.5339 81.8583L99.1919 82.2202L99.7229 81.6892L99.0158 80.9821ZM102.598 77.4001L103.305 76.693L102.598 75.9859L101.891 76.693L102.598 77.4001ZM108.123 82.9251L108.83 83.6322L109.537 82.9251L108.83 82.218L108.123 82.9251ZM104.496 86.5517L103.789 85.8446L103.267 86.3666L103.612 87.0193L104.496 86.5517ZM105.495 88.9899L104.538 89.2769L104.751 89.9899H105.495V88.9899ZM109.972 88.9899H110.972V87.9899H109.972V88.9899ZM109.972 96.8033V97.8033H110.972V96.8033H109.972ZM105.495 96.8033V95.8033H104.751L104.538 96.5162L105.495 96.8033ZM104.595 99.0505L103.704 98.597L103.375 99.2442L103.888 99.7576L104.595 99.0505ZM108.123 102.578L108.83 103.285L109.537 102.578L108.83 101.871L108.123 102.578ZM102.598 108.103L101.891 108.81L102.598 109.517L103.305 108.81L102.598 108.103ZM99.2018 104.707L99.9089 104L99.3691 103.46L98.7062 103.838L99.2018 104.707ZM96.3838 105.915L96.0968 104.957L95.3838 105.171V105.915H96.3838ZM96.3838 110.392V111.392H97.3838V110.392H96.3838ZM88.5703 110.392H87.5703V111.392H88.5703V110.392ZM88.5703 105.915H89.5703V105.17L88.8574 104.957L88.5703 105.915ZM85.7526 104.707L86.2482 103.838L85.5853 103.46L85.0455 104L85.7526 104.707ZM82.3565 108.103L81.6494 108.81L82.3565 109.517L83.0636 108.81L82.3565 108.103ZM76.8315 102.578L76.1244 101.871L75.4173 102.578L76.1244 103.285L76.8315 102.578ZM80.3592 99.0503L81.0663 99.7574L81.5797 99.244L81.2504 98.5968L80.3592 99.0503ZM79.4591 96.8033L80.417 96.5162L80.2034 95.8033H79.4591V96.8033ZM74.9824 96.8033H73.9824V97.8033H74.9824V96.8033ZM74.9824 88.9899V87.9899H73.9824V88.9899H74.9824ZM79.4591 88.9899V89.9899H80.2034L80.4171 89.2769L79.4591 88.9899ZM80.4583 86.5519L81.3422 87.0195L81.6875 86.3668L81.1654 85.8448L80.4583 86.5519ZM76.8315 82.9251L76.1244 82.218L75.4173 82.9251L76.1244 83.6322L76.8315 82.9251ZM82.3565 77.4001L83.0636 76.693L82.3565 75.9859L81.6494 76.693L82.3565 77.4001ZM85.9386 80.9823L85.2315 81.6894L85.7625 82.2204L86.4205 81.8585L85.9386 80.9823ZM88.5703 79.8786L88.8574 80.8365L89.5703 80.6228V79.8786H88.5703ZM96.3838 74.4017H88.5703V76.4017H96.3838V74.4017ZM97.3838 79.8784V75.4017H95.3838V79.8784H97.3838ZM99.4977 80.1059C98.6081 79.6166 97.6617 79.2173 96.6709 78.9204L96.0968 80.8363C96.9506 81.0921 97.7665 81.4363 98.5339 81.8583L99.4977 80.1059ZM101.891 76.693L98.3087 80.275L99.7229 81.6892L103.305 78.1073L101.891 76.693ZM108.83 82.218L103.305 76.693L101.891 78.1073L107.416 83.6322L108.83 82.218ZM105.203 87.2588L108.83 83.6322L107.416 82.218L103.789 85.8446L105.203 87.2588ZM106.453 88.7028C106.179 87.7889 105.818 86.9127 105.38 86.0841L103.612 87.0193C103.99 87.734 104.301 88.4893 104.538 89.2769L106.453 88.7028ZM109.972 87.9899H105.495V89.9899H109.972V87.9899ZM110.972 96.8033V88.9899H108.972V96.8033H110.972ZM105.495 97.8033H109.972V95.8033H105.495V97.8033ZM105.487 99.504C105.877 98.7363 106.202 97.9292 106.453 97.0903L104.538 96.5162C104.321 97.2392 104.041 97.9349 103.704 98.597L105.487 99.504ZM108.83 101.871L105.302 98.3434L103.888 99.7576L107.416 103.285L108.83 101.871ZM103.305 108.81L108.83 103.285L107.416 101.871L101.891 107.396L103.305 108.81ZM98.4947 105.414L101.891 108.81L103.305 107.396L99.9089 104L98.4947 105.414ZM96.6708 106.873C97.7362 106.554 98.7501 106.116 99.6973 105.575L98.7062 103.838C97.889 104.305 97.0148 104.682 96.0968 104.957L96.6708 106.873ZM97.3838 110.392V105.915H95.3838V110.392H97.3838ZM88.5703 111.392H96.3838V109.392H88.5703V111.392ZM87.5703 105.915V110.392H89.5703V105.915H87.5703ZM85.257 105.575C86.2042 106.116 87.218 106.553 88.2832 106.873L88.8574 104.957C87.9394 104.682 87.0653 104.304 86.2482 103.838L85.257 105.575ZM85.0455 104L81.6494 107.396L83.0636 108.81L86.4597 105.414L85.0455 104ZM83.0636 107.396L77.5386 101.871L76.1244 103.285L81.6494 108.81L83.0636 107.396ZM77.5387 103.285L81.0663 99.7574L79.6521 98.3432L76.1244 101.871L77.5387 103.285ZM78.5012 97.0903C78.7526 97.9291 79.0773 98.7361 79.4679 99.5038L81.2504 98.5968C80.9136 97.9348 80.6337 97.2391 80.417 96.5162L78.5012 97.0903ZM74.9824 97.8033H79.4591V95.8033H74.9824V97.8033ZM73.9824 88.9899V96.8033H75.9824V88.9899H73.9824ZM79.4591 87.9899H74.9824V89.9899H79.4591V87.9899ZM79.5744 86.0843C79.136 86.9129 78.7751 87.7889 78.5012 88.7028L80.4171 89.2769C80.6531 88.4894 80.9642 87.7341 81.3422 87.0195L79.5744 86.0843ZM76.1244 83.6322L79.7512 87.259L81.1654 85.8448L77.5387 82.218L76.1244 83.6322ZM81.6494 76.693L76.1244 82.218L77.5386 83.6322L83.0636 78.1073L81.6494 76.693ZM86.6457 80.2752L83.0636 76.693L81.6494 78.1073L85.2315 81.6894L86.6457 80.2752ZM88.2832 78.9207C87.2925 79.2176 86.3462 79.6168 85.4567 80.106L86.4205 81.8585C87.1878 81.4365 88.0036 81.0923 88.8574 80.8365L88.2832 78.9207ZM87.5703 75.4017V79.8786H89.5703V75.4017H87.5703ZM97.2402 92.8966C97.2402 95.5271 95.1078 97.6595 92.4775 97.6595V99.6595C96.2124 99.6595 99.2402 96.6316 99.2402 92.8966H97.2402ZM92.4775 88.1336C95.1078 88.1336 97.2402 90.2661 97.2402 92.8966H99.2402C99.2402 89.1616 96.2125 86.1336 92.4775 86.1336V88.1336ZM87.7143 92.8966C87.7143 90.2661 89.8467 88.1336 92.4775 88.1336V86.1336C88.7421 86.1336 85.7143 89.1615 85.7143 92.8966H87.7143ZM92.4775 97.6595C89.8467 97.6595 87.7143 95.527 87.7143 92.8966H85.7143C85.7143 96.6316 88.7422 99.6595 92.4775 99.6595V97.6595Z" fill="#141414" mask="url(#path-29-inside-2_765_25375)"/>
<path d="M36.8478 50.351L36.7158 50.2542H36.552H30.2677H19.6992C18.8708 50.2542 18.1992 49.5826 18.1992 48.7542V34.1813V26.0596L24.0744 18.1085H29.9451H39.8362C41.2169 18.1085 42.3362 19.2278 42.3362 20.6085V49.6901C42.3362 50.189 42.0882 50.6553 41.6745 50.9341L39.5724 52.3505L36.8478 50.351Z" fill="#003F7F" stroke="#141414"/>
<path d="M38.6479 20.1824C39.4764 20.1824 40.1479 20.8539 40.1479 21.6824V51.1843C40.1479 52.0128 39.4764 52.6843 38.6479 52.6843H18.1563C17.3278 52.6843 16.6562 52.0128 16.6562 51.1843V36.4333V28.2211L22.533 20.1824H28.4021H38.6479Z" fill="#0071E4" stroke="#141414"/>
<path d="M23.3459 26.2999V20.3883L22.6849 20.8131L17.4858 27.9144L21.1418 28.2894C22.3209 28.4104 23.3459 27.4851 23.3459 26.2999Z" fill="#579DE5"/>
<path d="M16.2769 28.3894H21.187C22.2916 28.3894 23.187 27.494 23.187 26.3894V20.2865" stroke="#141414"/>
</svg>
