<svg width="840" height="814" viewBox="0 0 840 814" fill="none" xmlns="http://www.w3.org/2000/svg">
<g clip-path="url(#clip0_436_16585)">
<g opacity="0.1">
<path d="M40 -1V814" stroke="white"/>
<path d="M360 -1V814" stroke="white"/>
<path d="M200 -1V814" stroke="white"/>
<path d="M520 -1V814" stroke="white"/>
<path d="M680 -1V814" stroke="white"/>
<path d="M120 -1V814" stroke="white"/>
<path d="M440 -1V814" stroke="white"/>
<path d="M280 -1V814" stroke="white"/>
<path d="M600 -1V814" stroke="white"/>
<path d="M760 -1V814" stroke="white"/>
<path d="M80 -1V814" stroke="white"/>
<path d="M400 -1V814" stroke="white"/>
<path d="M240 -1V814" stroke="white"/>
<path d="M560 -1V814" stroke="white"/>
<path d="M720 -1V814" stroke="white"/>
<path d="M160 -1V814" stroke="white"/>
<path d="M480 -1V814" stroke="white"/>
<path d="M320 -1V814" stroke="white"/>
<path d="M640 -1V814" stroke="white"/>
<path d="M800 -1V814" stroke="white"/>
<path d="M-1 786H840" stroke="white"/>
<path d="M-1 466H840" stroke="white"/>
<path d="M-1 626H840" stroke="white"/>
<path d="M-1 306H840" stroke="white"/>
<path d="M-1 146H840" stroke="white"/>
<path d="M-1 706H840" stroke="white"/>
<path d="M-1 386H840" stroke="white"/>
<path d="M-1 546H840" stroke="white"/>
<path d="M-1 226H840" stroke="white"/>
<path d="M-1 66H840" stroke="white"/>
<path d="M-1 746H840" stroke="white"/>
<path d="M-1 426H840" stroke="white"/>
<path d="M-1 586H840" stroke="white"/>
<path d="M-1 266H840" stroke="white"/>
<path d="M-1 106H840" stroke="white"/>
<path d="M-1 666H840" stroke="white"/>
<path d="M-1 346H840" stroke="white"/>
<path d="M-1 506H840" stroke="white"/>
<path d="M-1 186H840" stroke="white"/>
<path d="M-1 26H840" stroke="white"/>
</g>
</g>
<defs>
<clipPath id="clip0_436_16585">
<rect width="840" height="815" fill="white" transform="translate(0 -1)"/>
</clipPath>
</defs>
</svg>
