<svg width="184" height="48" viewBox="0 0 184 48" fill="none" xmlns="http://www.w3.org/2000/svg">
<path fill-rule="evenodd" clip-rule="evenodd" d="M37.2524 10.4616C38.051 9.75995 38.2925 9.16596 38.2925 8.71467C38.2925 8.26337 38.051 7.6694 37.2524 6.9677C36.4567 6.26829 35.2287 5.57794 33.5972 4.97148C30.3442 3.76238 25.762 2.98787 20.636 2.98787C15.5099 2.98787 10.9278 3.76238 7.67486 4.97148C6.04329 5.57794 4.81535 6.26829 4.01948 6.9677C3.22101 7.6694 2.97946 8.26337 2.97946 8.71467C2.97946 9.16596 3.22101 9.75995 4.01948 10.4616C4.81535 11.161 6.04329 11.8514 7.67486 12.4579C10.9278 13.667 15.5099 14.4415 20.636 14.4415C25.762 14.4415 30.3442 13.667 33.5972 12.4579C35.2287 11.8514 36.4567 11.161 37.2524 10.4616ZM20.636 15.7694C31.1182 15.7694 39.6157 12.6109 39.6157 8.71467C39.6157 4.81844 31.1182 1.65991 20.636 1.65991C10.1538 1.65991 1.65625 4.81844 1.65625 8.71467C1.65625 12.6109 10.1538 15.7694 20.636 15.7694Z" fill="white"/>
<path fill-rule="evenodd" clip-rule="evenodd" d="M7.92257 21.8262C11.1435 23.0724 15.6382 23.8573 20.636 23.8573C25.6338 23.8573 30.1285 23.0724 33.3494 21.8262C34.962 21.2024 36.2219 20.4757 37.0672 19.7025C37.9121 18.9296 38.2925 18.1608 38.2925 17.4294H39.6157C39.6157 18.6552 38.9711 19.7507 37.9619 20.6738C36.9535 21.5963 35.5306 22.3968 33.8284 23.0554C30.4195 24.3742 25.755 25.1758 20.636 25.1758C15.517 25.1758 10.8526 24.3742 7.44365 23.0554C5.74131 22.3968 4.31852 21.5963 3.30999 20.6738C2.30094 19.7507 1.65625 18.6552 1.65625 17.4294H2.97946C2.97946 18.1608 3.35994 18.9296 4.20478 19.7025C5.05015 20.4757 6.30997 21.2024 7.92257 21.8262Z" fill="white"/>
<path fill-rule="evenodd" clip-rule="evenodd" d="M7.9439 30.6194C11.1758 31.8877 15.6858 32.6867 20.7006 32.6867C25.5243 32.6867 29.8825 31.9475 33.0855 30.7612L33.5422 32.0212C30.1619 33.2732 25.6433 34.0288 20.7006 34.0288C15.5642 34.0288 10.8839 33.2129 7.46335 31.8704C5.75521 31.2001 4.32758 30.3853 3.3156 29.4462C2.30312 28.5068 1.65625 27.3916 1.65625 26.144H2.98396C2.98396 26.8884 3.36574 27.6711 4.21346 28.4576C5.0617 29.2447 6.32582 29.9843 7.9439 30.6194Z" fill="white"/>
<path fill-rule="evenodd" clip-rule="evenodd" d="M7.91772 39.2302C11.1402 40.4743 15.6367 41.258 20.636 41.258C22.4071 41.258 24.1172 41.1596 25.7315 40.9766L25.878 42.3155C24.2138 42.5042 22.4547 42.6052 20.636 42.6052C15.5185 42.6052 10.8559 41.8055 7.44851 40.4898C5.74716 39.8329 4.32464 39.0344 3.31571 38.1134C2.30714 37.1926 1.65625 36.0942 1.65625 34.8588H2.97946C2.97946 35.5766 3.35374 36.3386 4.19905 37.1103C5.04403 37.8817 6.30412 38.6072 7.91772 39.2302ZM37.3854 36.8028C38.0121 36.135 38.2925 35.4819 38.2925 34.8588H39.6157C39.6157 35.9278 39.1268 36.8973 38.3422 37.7334C37.5607 38.5662 36.456 39.3022 35.1277 39.932L34.5691 38.7108C35.8076 38.1233 36.7558 37.4739 37.3854 36.8028Z" fill="white"/>
<path fill-rule="evenodd" clip-rule="evenodd" d="M1.65625 34.8588V8.71472H3.0366V34.8588H1.65625Z" fill="white"/>
<path fill-rule="evenodd" clip-rule="evenodd" d="M38.3735 22.3677V8.71472H39.6158V22.3677H38.3735ZM38.3735 34.8588V30.6675H39.6158V34.8588H38.3735Z" fill="white"/>
<path fill-rule="evenodd" clip-rule="evenodd" d="M35.2103 28.6943C35.153 28.795 35.0992 28.8898 35.0489 28.9778C33.9455 30.909 31.3927 36.1868 30.5612 38.3361C30.3219 38.9542 29.4863 38.9659 29.2006 38.405C28.7847 37.589 28.3652 36.8983 27.8232 36.4077C27.3051 35.9386 26.653 35.633 25.7094 35.633C25.0874 35.633 24.3698 36.0252 23.8376 36.5591C23.5783 36.8195 23.4043 37.0736 23.3215 37.2634C23.2997 37.3133 23.2874 37.3501 23.2805 37.3757C23.3954 37.5247 23.5664 37.738 23.775 37.9982C24.387 38.7619 25.3223 39.9288 26.108 41.051C26.6716 41.8562 27.0864 42.5149 27.443 43.0959C27.5245 43.2288 27.6024 43.3566 27.6779 43.4804C27.9348 43.9018 28.1634 44.277 28.4154 44.655C28.4588 44.7201 28.5848 44.8275 28.877 44.9099C29.1576 44.9892 29.5168 45.0229 29.9029 45.0069C30.2863 44.991 30.6665 44.9273 30.9808 44.8324C31.3141 44.7319 31.4987 44.6187 31.5637 44.5537C31.6641 44.4536 31.8062 44.2595 31.9862 43.9471C32.1613 43.6436 32.3528 43.2628 32.5595 42.817C32.9729 41.9246 33.4279 40.813 33.9119 39.6165C33.9691 39.4754 34.0267 39.3329 34.0846 39.1895C34.9975 36.9307 36.007 34.4325 36.9813 32.7627C38.9385 29.4081 40.7564 26.5255 44.6042 22.037C44.8047 21.8032 44.9426 21.6025 45.0114 21.4423C45.0512 21.3499 45.0548 21.3039 45.0538 21.2871C45.0402 21.2685 44.9606 21.176 44.66 21.0763C44.3128 20.9611 43.7622 20.8677 42.926 20.8355C42.1903 20.8073 41.4126 21.1034 40.6058 21.676C39.8011 22.247 39.017 23.0584 38.2878 23.9675C36.9464 25.6396 35.8592 27.5526 35.2103 28.6943ZM45.0524 21.2795C45.0524 21.2795 45.0533 21.2812 45.0537 21.2849C45.0524 21.2816 45.0522 21.2797 45.0524 21.2795ZM23.2725 37.4234C23.2723 37.4236 23.272 37.4204 23.2728 37.4133C23.2734 37.4197 23.2729 37.4231 23.2725 37.4234ZM39.8405 20.5908C40.7819 19.9228 41.8445 19.4637 42.9767 19.5073C43.8693 19.5416 44.5603 19.6431 45.0762 19.8143C45.5835 19.9827 46.0217 20.2528 46.2422 20.6977C46.4702 21.1578 46.3773 21.6222 46.2282 21.9689C46.08 22.3134 45.8395 22.6349 45.609 22.9039C41.826 27.3166 40.053 30.1294 38.1249 33.4342C37.2015 35.0169 36.2253 37.4314 35.2963 39.7296C35.244 39.859 35.1918 39.988 35.1398 40.1165C34.6576 41.3081 34.1906 42.4501 33.7611 43.3772C33.5462 43.841 33.3359 44.2613 33.1333 44.6128C32.9356 44.9556 32.7242 45.2703 32.4992 45.4953C32.205 45.7894 31.773 45.9815 31.3625 46.1055C30.933 46.2351 30.442 46.315 29.9574 46.3351C29.4754 46.355 28.9695 46.317 28.5183 46.1896C28.0786 46.0655 27.6058 45.8319 27.314 45.3941C27.0456 44.9914 26.7983 44.5859 26.5387 44.1599C26.4653 44.0393 26.3907 43.917 26.3145 43.7928C25.9657 43.2242 25.5662 42.5901 25.0236 41.8151C24.261 40.7256 23.4204 39.678 22.8141 38.9224C22.539 38.5796 22.3122 38.2968 22.1627 38.0975C21.8123 37.6302 21.9613 37.066 22.1075 36.7308C22.2744 36.3479 22.5608 35.9602 22.9005 35.6193C23.5664 34.9511 24.6014 34.3037 25.7094 34.3037C26.9891 34.3037 27.9555 34.7368 28.7109 35.4208C29.1351 35.8047 29.4845 36.2605 29.7868 36.7395C30.8884 34.1881 32.9276 30.0173 33.8993 28.3168C33.9491 28.2296 34.0031 28.1347 34.0609 28.0327C34.7065 26.8961 35.8435 24.8942 37.2554 23.1341C38.0252 22.1745 38.8972 21.2602 39.8405 20.5908Z" fill="white"/>
<path d="M52.6104 19.5043C52.6104 18.8514 52.6104 18.2234 52.6104 17.6203C52.6104 17.0172 52.6104 16.3476 52.6104 15.6117V11.6279C52.6104 10.8754 52.6104 10.192 52.6104 9.57785C52.6104 8.96367 52.6104 8.32736 52.6104 7.66892C53.0907 7.66892 53.5683 7.66892 54.0431 7.66892C54.5235 7.66892 55.0039 7.66892 55.4842 7.66892C55.9646 7.66892 56.456 7.66892 56.9584 7.66892C57.8639 7.66892 58.6673 7.80171 59.3685 8.0673C60.0753 8.32736 60.6716 8.71191 61.1574 9.22096C61.6433 9.72448 62.0105 10.3387 62.259 11.0635C62.5129 11.7883 62.6399 12.6155 62.6399 13.5451C62.6399 14.3806 62.5267 15.1608 62.3004 15.8856C62.0795 16.6049 61.7261 17.2357 61.2403 17.778C60.7599 18.3202 60.1249 18.7435 59.3354 19.0478C58.5458 19.3521 57.5851 19.5043 56.4532 19.5043C55.9618 19.5043 55.5036 19.5043 55.0784 19.5043C54.6533 19.5043 54.2392 19.5043 53.8361 19.5043C53.4386 19.5043 53.03 19.5043 52.6104 19.5043ZM54.5566 17.9108H56.4615C57.483 17.9108 58.2974 17.7199 58.9047 17.3381C59.5121 16.9563 59.9483 16.4334 60.2133 15.7694C60.4783 15.1055 60.6108 14.353 60.6108 13.5119C60.6108 12.8701 60.5335 12.2891 60.3789 11.769C60.2243 11.2433 59.9842 10.7951 59.6584 10.4244C59.3326 10.0482 58.9185 9.76044 58.4161 9.56125C57.9136 9.36206 57.3146 9.26246 56.6189 9.26246H54.5566C54.5566 9.69958 54.5566 10.1395 54.5566 10.5821C54.5566 11.0192 54.5566 11.5034 54.5566 12.0346V15.1885C54.5566 15.7086 54.5566 16.1872 54.5566 16.6243C54.5566 17.0559 54.5566 17.4847 54.5566 17.9108ZM65.8132 19.5043C66.0341 18.868 66.266 18.1985 66.5089 17.4958C66.7518 16.7931 66.9865 16.1263 67.2129 15.4955L68.6208 11.4287C68.8803 10.6983 69.1122 10.0399 69.3165 9.45335C69.5208 8.86131 69.7279 8.2665 69.9377 7.66892H72.4637C72.679 8.2831 72.8861 8.88344 73.0849 9.46995C73.2892 10.0565 73.5183 10.7121 73.7723 11.437L75.1719 15.5121C75.3983 16.1651 75.6302 16.8373 75.8676 17.529C76.1106 18.2151 76.3397 18.8735 76.5551 19.5043H74.5342C74.3189 18.8348 74.098 18.1487 73.8717 17.446C73.6453 16.7377 73.43 16.0682 73.2257 15.4374L71.2711 9.37866H71.1055L69.126 15.3793C68.9107 16.0323 68.6871 16.7156 68.4552 17.4294C68.2233 18.1432 67.9969 18.8348 67.7761 19.5043H65.8132ZM68.2399 16.7156L68.4221 15.2217H74.1533L74.3023 16.7156H68.2399ZM82.3899 19.5043C82.3899 18.8514 82.3899 18.2234 82.3899 17.6203C82.3899 17.0172 82.3899 16.3476 82.3899 15.6117V11.9184C82.3899 11.1714 82.3899 10.4908 82.3899 9.87664C82.3899 9.25693 82.3899 8.62062 82.3899 7.96771L83.1436 9.38696H81.6777C81.0261 9.38696 80.4491 9.38696 79.9467 9.38696C79.4443 9.38696 78.9667 9.38696 78.5139 9.38696V7.66892H88.1956V9.38696C87.7484 9.38696 87.2736 9.38696 86.7711 9.38696C86.2687 9.38696 85.6889 9.38696 85.0319 9.38696H83.566L84.3279 7.96771C84.3279 8.62062 84.3279 9.25693 84.3279 9.87664C84.3279 10.4908 84.3279 11.1714 84.3279 11.9184V15.6117C84.3279 16.3476 84.3279 17.0172 84.3279 17.6203C84.3279 18.2234 84.3279 18.8514 84.3279 19.5043H82.3899ZM90.1774 19.5043C90.3983 18.868 90.6302 18.1985 90.8731 17.4958C91.116 16.7931 91.3507 16.1263 91.5771 15.4955L92.985 11.4287C93.2445 10.6983 93.4764 10.0399 93.6807 9.45335C93.885 8.86131 94.0921 8.2665 94.3019 7.66892H96.8279C97.0432 8.2831 97.2503 8.88344 97.4491 9.46995C97.6534 10.0565 97.8825 10.7121 98.1365 11.437L99.5361 15.5121C99.7625 16.1651 99.9944 16.8373 100.232 17.529C100.475 18.2151 100.704 18.8735 100.919 19.5043H98.8984C98.6831 18.8348 98.4622 18.1487 98.2359 17.446C98.0095 16.7377 97.7942 16.0682 97.5899 15.4374L95.6353 9.37866H95.4697L93.4902 15.3793C93.2749 16.0323 93.0513 16.7156 92.8194 17.4294C92.5875 18.1432 92.3611 18.8348 92.1403 19.5043H90.1774ZM92.6041 16.7156L92.7863 15.2217H98.5174L98.6665 16.7156H92.6041ZM110.876 19.5043C110.876 18.8514 110.876 18.2234 110.876 17.6203C110.876 17.0172 110.876 16.3476 110.876 15.6117V11.6279C110.876 10.8754 110.876 10.192 110.876 9.57785C110.876 8.96367 110.876 8.32736 110.876 7.66892H112.599C113.25 8.59848 113.871 9.48655 114.462 10.3331C115.058 11.1797 115.646 12.0207 116.226 12.8562L118.553 16.1678H118.711V11.6279C118.711 10.8754 118.711 10.192 118.711 9.57785C118.711 8.96367 118.711 8.32736 118.711 7.66892H120.541C120.541 8.32736 120.541 8.96367 120.541 9.57785C120.541 10.192 120.541 10.8754 120.541 11.6279V15.6117C120.541 16.3476 120.541 17.0172 120.541 17.6203C120.541 18.2234 120.541 18.8514 120.541 19.5043H118.843C118.308 18.7352 117.742 17.9301 117.145 17.0891C116.555 16.2425 115.906 15.3157 115.199 14.3087L112.855 10.9639H112.706V15.6117C112.706 16.3476 112.706 17.0172 112.706 17.6203C112.706 18.2234 112.706 18.8514 112.706 19.5043H110.876ZM131.249 19.7035C130.222 19.7035 129.327 19.5403 128.565 19.2138C127.809 18.8874 127.179 18.4392 126.677 17.8693C126.18 17.2993 125.807 16.6464 125.559 15.9105C125.311 15.1746 125.186 14.3972 125.186 13.5783C125.186 12.433 125.415 11.3983 125.874 10.4742C126.337 9.54465 127.014 8.80874 127.903 8.2665C128.797 7.71871 129.893 7.44482 131.191 7.44482C132.174 7.44482 133.038 7.60252 133.783 7.91791C134.534 8.2333 135.161 8.67318 135.663 9.23756C136.171 9.79641 136.552 10.4466 136.806 11.188C137.06 11.9294 137.187 12.7262 137.187 13.5783C137.187 14.7458 136.955 15.7916 136.491 16.7156C136.027 17.6396 135.351 18.37 134.462 18.9067C133.579 19.4379 132.508 19.7035 131.249 19.7035ZM131.207 18.0602C131.886 18.0602 132.474 17.9384 132.971 17.695C133.468 17.4515 133.88 17.1195 134.205 16.699C134.531 16.2785 134.771 15.7999 134.926 15.2632C135.086 14.7264 135.166 14.1648 135.166 13.5783C135.166 12.9475 135.081 12.361 134.909 11.8188C134.738 11.2765 134.484 10.8007 134.147 10.3912C133.816 9.98177 133.405 9.66361 132.913 9.43676C132.422 9.20436 131.853 9.08817 131.207 9.08817C130.539 9.08817 129.957 9.20713 129.46 9.44505C128.963 9.68298 128.546 10.0122 128.209 10.4327C127.878 10.8532 127.629 11.3319 127.464 11.8686C127.298 12.4053 127.215 12.9752 127.215 13.5783C127.215 14.1759 127.295 14.743 127.456 15.2798C127.616 15.8165 127.859 16.2951 128.184 16.7156C128.516 17.1306 128.933 17.4598 129.435 17.7033C129.937 17.9412 130.528 18.0602 131.207 18.0602ZM144.327 19.5043C144.327 18.8514 144.327 18.2234 144.327 17.6203C144.327 17.0172 144.327 16.3476 144.327 15.6117V11.9184C144.327 11.1714 144.327 10.4908 144.327 9.87664C144.327 9.25693 144.327 8.62062 144.327 7.96771L145.081 9.38696H143.615C142.964 9.38696 142.387 9.38696 141.884 9.38696C141.382 9.38696 140.904 9.38696 140.451 9.38696V7.66892H150.133V9.38696C149.686 9.38696 149.211 9.38696 148.709 9.38696C148.206 9.38696 147.626 9.38696 146.969 9.38696H145.503L146.265 7.96771C146.265 8.62062 146.265 9.25693 146.265 9.87664C146.265 10.4908 146.265 11.1714 146.265 11.9184V15.6117C146.265 16.3476 146.265 17.0172 146.265 17.6203C146.265 18.2234 146.265 18.8514 146.265 19.5043H144.327ZM154.491 19.5043C154.491 18.8514 154.491 18.2234 154.491 17.6203C154.491 17.0172 154.491 16.3476 154.491 15.6117V11.6196C154.491 10.8781 154.491 10.1976 154.491 9.57785C154.491 8.95814 154.491 8.32183 154.491 7.66892H162.011V9.31226C161.475 9.31226 160.901 9.31226 160.288 9.31226C159.675 9.31226 158.952 9.31226 158.118 9.31226H155.311L156.396 7.96771C156.396 8.62062 156.396 9.25693 156.396 9.87664C156.396 10.4908 156.396 11.1714 156.396 11.9184V15.313C156.396 16.0433 156.396 16.7128 156.396 17.3215C156.396 17.9246 156.396 18.5526 156.396 19.2055L155.427 17.861H158.276C158.971 17.861 159.631 17.861 160.255 17.861C160.879 17.861 161.478 17.861 162.052 17.861V19.5043H154.491ZM155.965 14.3087V12.7234H158.21C158.96 12.7234 159.604 12.7234 160.139 12.7234C160.68 12.7234 161.202 12.7234 161.705 12.7234V14.3087C161.18 14.3087 160.647 14.3087 160.106 14.3087C159.571 14.3087 158.936 14.3087 158.201 14.3087H155.965ZM170.38 19.6952C169.889 19.6952 169.389 19.6509 168.881 19.5624C168.379 19.4794 167.909 19.3715 167.473 19.2387C167.042 19.1059 166.694 18.9731 166.429 18.8403L166.587 17.0227C166.968 17.2385 167.36 17.4238 167.763 17.5788C168.171 17.7282 168.583 17.8471 168.997 17.9357C169.417 18.0187 169.833 18.0602 170.247 18.0602C170.7 18.0602 171.103 18.0021 171.457 17.8859C171.81 17.7641 172.086 17.5788 172.285 17.3298C172.489 17.0753 172.591 16.7488 172.591 16.3504C172.591 15.9686 172.478 15.6532 172.252 15.4042C172.031 15.1553 171.708 14.9395 171.283 14.7569C170.858 14.5687 170.35 14.3862 169.759 14.2091C169.019 13.9822 168.387 13.7305 167.862 13.4538C167.338 13.1716 166.937 12.8203 166.661 12.3998C166.391 11.9792 166.256 11.437 166.256 10.773C166.256 10.1312 166.402 9.55848 166.694 9.05497C166.993 8.55145 167.434 8.1586 168.02 7.87641C168.61 7.58869 169.348 7.44482 170.231 7.44482C170.584 7.44482 170.938 7.46972 171.291 7.51952C171.65 7.56932 171.992 7.63572 172.318 7.71871C172.649 7.79618 172.95 7.88748 173.221 7.99261C173.491 8.09773 173.726 8.20563 173.925 8.31629L173.751 10.1256C173.414 9.89877 173.055 9.71065 172.674 9.56125C172.299 9.40632 171.926 9.29013 171.556 9.21266C171.192 9.12967 170.852 9.08817 170.537 9.08817C170.134 9.08817 169.764 9.14627 169.428 9.26246C169.091 9.37866 168.82 9.55572 168.616 9.79364C168.412 10.026 168.309 10.3248 168.309 10.69C168.309 11.022 168.398 11.3014 168.575 11.5283C168.751 11.7551 169.03 11.9571 169.411 12.1342C169.792 12.3112 170.283 12.4938 170.885 12.6819C171.829 12.9807 172.575 13.2851 173.121 13.5949C173.668 13.8992 174.054 14.2589 174.281 14.6739C174.513 15.0889 174.629 15.609 174.629 16.2342C174.629 16.9037 174.48 17.4985 174.181 18.0187C173.889 18.5388 173.428 18.9482 172.798 19.247C172.174 19.5458 171.368 19.6952 170.38 19.6952Z" fill="white"/>
<path d="M56.1552 40.9978C55.6638 40.9978 55.1641 40.9535 54.6562 40.865C54.1537 40.782 53.6844 40.6741 53.2482 40.5413C52.8176 40.4085 52.4697 40.2757 52.2047 40.1429L52.362 38.3253C52.743 38.5411 53.135 38.7265 53.5381 38.8814C53.9467 39.0308 54.358 39.1497 54.7721 39.2383C55.1918 39.3213 55.6086 39.3628 56.0227 39.3628C56.4755 39.3628 56.8785 39.3047 57.2319 39.1885C57.5853 39.0667 57.8613 38.8814 58.0601 38.6324C58.2644 38.3779 58.3665 38.0514 58.3665 37.653C58.3665 37.2712 58.2534 36.9558 58.027 36.7069C57.8061 36.4579 57.4831 36.2421 57.058 36.0595C56.6328 35.8714 56.1249 35.6888 55.5341 35.5117C54.7942 35.2848 54.162 35.0331 53.6375 34.7564C53.113 34.4742 52.7127 34.1229 52.4366 33.7024C52.166 33.2818 52.0308 32.7396 52.0308 32.0756C52.0308 31.4338 52.1771 30.8611 52.4697 30.3576C52.7679 29.8541 53.2096 29.4612 53.7948 29.179C54.3856 28.8913 55.1227 28.7474 56.0062 28.7474C56.3595 28.7474 56.7129 28.7723 57.0663 28.8221C57.4252 28.8719 57.7675 28.9383 58.0932 29.0213C58.4245 29.0988 58.7254 29.1901 58.996 29.2952C59.2665 29.4003 59.5012 29.5082 59.7 29.6189L59.526 31.4282C59.1892 31.2014 58.8303 31.0133 58.4494 30.8639C58.0739 30.7089 57.7012 30.5927 57.3313 30.5153C56.9669 30.4323 56.6273 30.3908 56.3126 30.3908C55.9095 30.3908 55.5396 30.4489 55.2028 30.5651C54.866 30.6813 54.5954 30.8583 54.3912 31.0963C54.1869 31.3286 54.0847 31.6274 54.0847 31.9926C54.0847 32.3246 54.1731 32.604 54.3497 32.8309C54.5264 33.0578 54.8053 33.2597 55.1862 33.4368C55.5672 33.6138 56.0586 33.7964 56.6604 33.9846C57.6046 34.2833 58.35 34.5877 58.8966 34.8975C59.4432 35.2018 59.8297 35.5615 60.0561 35.9765C60.288 36.3915 60.4039 36.9116 60.4039 37.5368C60.4039 38.2063 60.2549 38.8012 59.9567 39.3213C59.6641 39.8414 59.203 40.2508 58.5736 40.5496C57.9497 40.8484 57.1436 40.9978 56.1552 40.9978ZM73.9501 43.6371C73.6078 43.3383 73.2654 43.0451 72.9231 42.7573C72.5808 42.4696 72.244 42.1819 71.9127 41.8942L70.6041 40.782L71.6642 39.6865L73.3621 41.0227C73.732 41.316 74.0992 41.6065 74.4636 41.8942C74.8335 42.1819 75.2366 42.5001 75.6728 42.8486L73.9501 43.6371ZM70.3143 41.0061C69.2873 41.0061 68.3928 40.8429 67.6309 40.5164C66.8744 40.19 66.245 39.7418 65.7426 39.1719C65.2456 38.602 64.8729 37.949 64.6245 37.2131C64.376 36.4772 64.2518 35.6998 64.2518 34.8809C64.2518 33.7356 64.4809 32.7009 64.9392 31.7768C65.403 30.8473 66.0794 30.1114 66.9683 29.5691C67.8628 29.0213 68.9588 28.7474 70.2563 28.7474C71.2391 28.7474 72.1032 28.9051 72.8486 29.2205C73.5995 29.5359 74.2262 29.9758 74.7286 30.5402C75.2366 31.099 75.6175 31.7492 75.8715 32.4906C76.1255 33.232 76.2525 34.0288 76.2525 34.8809C76.2525 36.0484 76.0206 37.0942 75.5568 38.0182C75.093 38.9422 74.4167 39.6726 73.5277 40.2093C72.6443 40.7405 71.5731 41.0061 70.3143 41.0061ZM70.2729 39.3628C70.952 39.3628 71.54 39.241 72.0369 38.9976C72.5339 38.7541 72.9452 38.4221 73.271 38.0016C73.5967 37.5811 73.8369 37.1025 73.9915 36.5658C74.1516 36.029 74.2317 35.4674 74.2317 34.8809C74.2317 34.2501 74.1461 33.6636 73.9749 33.1214C73.8038 32.5791 73.5498 32.1033 73.213 31.6938C72.8817 31.2844 72.4704 30.9662 71.979 30.7394C71.4876 30.507 70.9189 30.3908 70.2729 30.3908C69.6048 30.3908 69.0223 30.5097 68.5253 30.7477C68.0284 30.9856 67.6115 31.3148 67.2747 31.7353C66.9435 32.1559 66.695 32.6345 66.5294 33.1712C66.3637 33.7079 66.2809 34.2778 66.2809 34.8809C66.2809 35.4785 66.361 36.0456 66.5211 36.5824C66.6812 37.1191 66.9241 37.5977 67.2499 38.0182C67.5812 38.4332 67.998 38.7624 68.5005 39.0059C69.0029 39.2438 69.5937 39.3628 70.2729 39.3628ZM80.9054 40.8069C80.9054 40.154 80.9054 39.526 80.9054 38.9229C80.9054 38.3198 80.9054 37.6503 80.9054 36.9143V32.9305C80.9054 32.178 80.9054 31.4946 80.9054 30.8805C80.9054 30.2663 80.9054 29.63 80.9054 28.9715H82.8517C82.8517 29.63 82.8517 30.2663 82.8517 30.8805C82.8517 31.4946 82.8517 32.178 82.8517 32.9305V36.6073C82.8517 37.3432 82.8517 38.0154 82.8517 38.6241C82.8517 39.2272 82.8517 39.8525 82.8517 40.4998L82.1477 39.0889H84.3673C84.9746 39.0889 85.5102 39.0889 85.974 39.0889C86.4433 39.0889 86.8767 39.0889 87.2743 39.0889C87.6718 39.0889 88.0804 39.0889 88.5 39.0889V40.8069H80.9054Z" fill="#9849AD"/>
</svg>
