<svg width="105" height="49" viewBox="0 0 105 49" fill="none" xmlns="http://www.w3.org/2000/svg">
<path d="M103.243 12.442L5.78027 2.19824L2.12178 37.0065L99.5849 47.2503L103.243 12.442Z" fill="#0071E4" stroke="#141414" stroke-width="3"/>
<path d="M37.1512 12.9557L35.0146 33.2834L31.3497 32.8982L23.9634 19.1864L23.8164 19.1709L22.4717 31.9651L18.2287 31.5191L20.3652 11.1914L24.0889 11.5828L31.4076 25.2774L31.584 25.296L32.9277 12.5118L37.1512 12.9557Z" fill="white"/>
<mask id="mask0_436_16372" style="mask-type:luminance" maskUnits="userSpaceOnUse" x="16" y="9" width="23" height="26">
<path d="M38.6988 11.6911L19.0762 9.62866L16.6607 32.6103L36.2833 34.6727L38.6988 11.6911Z" fill="white"/>
<path d="M37.1512 12.9557L35.0146 33.2834L31.3497 32.8982L23.9634 19.1864L23.8164 19.1709L22.4717 31.9651L18.2287 31.5191L20.3652 11.1914L24.0889 11.5828L31.4076 25.2774L31.584 25.296L32.9277 12.5118L37.1512 12.9557Z" fill="black"/>
</mask>
<g mask="url(#mask0_436_16372)">
<path d="M37.1513 12.9557L38.3777 13.0846L38.5083 11.8424L37.2819 11.7135L37.1513 12.9557ZM35.0148 33.2834L34.8842 34.5257L36.1106 34.6546L36.2412 33.4123L35.0148 33.2834ZM31.3499 32.8982L30.2668 33.4985L30.5761 34.0729L31.2193 34.1405L31.3499 32.8982ZM23.9636 19.1864L25.0467 18.5861L24.7373 18.0118L24.0941 17.9442L23.9636 19.1864ZM23.8166 19.171L23.9472 17.9287L22.7207 17.7998L22.5902 19.0421L23.8166 19.171ZM22.4719 31.9651L22.3413 33.2074L23.5677 33.3363L23.6983 32.094L22.4719 31.9651ZM18.2289 31.5192L17.0024 31.3903L16.8719 32.6325L18.0983 32.7614L18.2289 31.5192ZM20.3654 11.1915L20.4959 9.94921L19.2695 9.82031L19.139 11.0626L20.3654 11.1915ZM24.089 11.5828L25.1741 10.9861L24.8654 10.4085L24.2196 10.3406L24.089 11.5828ZM31.4078 25.2775L30.3227 25.8742L30.6315 26.4519L31.2772 26.5197L31.4078 25.2775ZM31.5842 25.296L31.4536 26.5383L32.68 26.6672L32.8106 25.4249L31.5842 25.296ZM32.9278 12.5118L33.0584 11.2696L31.832 11.1407L31.7014 12.3829L32.9278 12.5118ZM35.9249 12.8268L33.7884 33.1545L36.2412 33.4123L38.3777 13.0846L35.9249 12.8268ZM35.1454 32.0412L31.4804 31.656L31.2193 34.1405L34.8842 34.5257L35.1454 32.0412ZM32.4329 32.2979L25.0467 18.5861L22.8805 19.7867L30.2668 33.4985L32.4329 32.2979ZM24.0941 17.9442L23.9472 17.9287L23.686 20.4132L23.833 20.4287L24.0941 17.9442ZM22.5902 19.0421L21.2455 31.8362L23.6983 32.094L25.043 19.2999L22.5902 19.0421ZM22.6024 30.7229L18.3594 30.2769L18.0983 32.7614L22.3413 33.2074L22.6024 30.7229ZM19.4553 31.6481L21.5918 11.3204L19.139 11.0626L17.0024 31.3903L19.4553 31.6481ZM20.2348 12.4337L23.9585 12.8251L24.2196 10.3406L20.4959 9.94921L20.2348 12.4337ZM23.004 12.1795L30.3227 25.8742L32.4928 24.6808L25.1741 10.9861L23.004 12.1795ZM31.2772 26.5197L31.4536 26.5383L31.7147 24.0538L31.5383 24.0352L31.2772 26.5197ZM32.8106 25.4249L34.1543 12.6407L31.7014 12.3829L30.3577 25.1671L32.8106 25.4249ZM32.7973 13.7541L37.0208 14.198L37.2819 11.7135L33.0584 11.2696L32.7973 13.7541Z" fill="#141414"/>
</g>
<path d="M39.6911 33.775L41.8276 13.4473L55.3504 14.8686L54.9779 18.412L45.6983 17.4367L45.1892 22.2804L53.7732 23.1826L53.4007 26.726L44.8168 25.8238L44.3066 30.6775L53.6255 31.6569L53.2531 35.2004L39.6911 33.775Z" fill="white"/>
<mask id="mask1_436_16372" style="mask-type:luminance" maskUnits="userSpaceOnUse" x="38" y="11" width="19" height="26">
<path d="M56.7885 13.5925L40.5386 11.8845L38.1231 34.8661L54.3731 36.5741L56.7885 13.5925Z" fill="white"/>
<path d="M39.6911 33.775L41.8276 13.4473L55.3504 14.8686L54.9779 18.412L45.6983 17.4367L45.1892 22.2804L53.7732 23.1826L53.4007 26.726L44.8168 25.8238L44.3066 30.6775L53.6255 31.6569L53.2531 35.2004L39.6911 33.775Z" fill="black"/>
</mask>
<g mask="url(#mask1_436_16372)">
<path d="M39.6913 33.775L38.4648 33.6461L38.3343 34.8884L39.5607 35.0173L39.6913 33.775ZM41.8278 13.4473L41.9583 12.2051L40.7319 12.0762L40.6014 13.3184L41.8278 13.4473ZM55.3505 14.8686L56.5769 14.9975L56.7075 13.7553L55.4811 13.6264L55.3505 14.8686ZM54.9781 18.4121L54.8475 19.6543L56.0739 19.7832L56.2045 18.541L54.9781 18.4121ZM45.6984 17.4367L45.829 16.1945L44.6026 16.0656L44.472 17.3078L45.6984 17.4367ZM45.1893 22.2804L43.9629 22.1515L43.8324 23.3938L45.0588 23.5227L45.1893 22.2804ZM53.7733 23.1826L54.9997 23.3115L55.1303 22.0693L53.9039 21.9404L53.7733 23.1826ZM53.4009 26.7261L53.2703 27.9683L54.4967 28.0972L54.6273 26.855L53.4009 26.7261ZM44.8169 25.8239L44.9475 24.5816L43.7211 24.4527L43.5905 25.695L44.8169 25.8239ZM44.3068 30.6775L43.0804 30.5486L42.9498 31.7909L44.1762 31.9198L44.3068 30.6775ZM53.6257 31.657L54.8521 31.7859L54.9826 30.5436L53.7562 30.4147L53.6257 31.657ZM53.2532 35.2004L53.1227 36.4427L54.3491 36.5716L54.4796 35.3293L53.2532 35.2004ZM40.9177 33.9039L43.0542 13.5762L40.6014 13.3184L38.4648 33.6461L40.9177 33.9039ZM41.6972 14.6896L55.2199 16.1109L55.4811 13.6264L41.9583 12.2051L41.6972 14.6896ZM54.1241 14.7397L53.7517 18.2832L56.2045 18.541L56.5769 14.9975L54.1241 14.7397ZM55.1086 17.1698L45.829 16.1945L45.5679 18.679L54.8475 19.6543L55.1086 17.1698ZM44.472 17.3078L43.9629 22.1515L46.4158 22.4093L46.9248 17.5656L44.472 17.3078ZM45.0588 23.5227L53.6427 24.4249L53.9039 21.9404L45.3199 21.0382L45.0588 23.5227ZM52.5469 23.0537L52.1745 26.5972L54.6273 26.855L54.9997 23.3115L52.5469 23.0537ZM53.5314 25.4838L44.9475 24.5816L44.6863 27.0661L53.2703 27.9683L53.5314 25.4838ZM43.5905 25.695L43.0804 30.5486L45.5332 30.8064L46.0433 25.9528L43.5905 25.695ZM44.1762 31.9198L53.4951 32.8992L53.7562 30.4147L44.4373 29.4353L44.1762 31.9198ZM52.3992 31.5281L52.0268 35.0715L54.4796 35.3293L54.8521 31.7859L52.3992 31.5281ZM53.3838 33.9582L39.8218 32.5328L39.5607 35.0173L53.1227 36.4427L53.3838 33.9582Z" fill="#141414"/>
</g>
<path d="M63.5248 36.2799L59.9189 15.3486L64.5539 15.8358L66.3914 30.3091L66.5579 30.3266L71.7072 16.5876L75.6759 17.0048L77.8433 31.5428L78.0196 31.5614L82.8293 17.7566L87.4642 18.2438L79.5853 37.9679L75.4501 37.5333L73.0255 23.8412L72.8685 23.8247L67.6599 36.7145L63.5248 36.2799Z" fill="white"/>
<mask id="mask2_436_16372" style="mask-type:luminance" maskUnits="userSpaceOnUse" x="55" y="13" width="35" height="27">
<path d="M89.2882 17.0082L58.3213 13.7534L55.9058 36.735L86.8727 39.9898L89.2882 17.0082Z" fill="white"/>
<path d="M63.5248 36.2799L59.9189 15.3486L64.5539 15.8358L66.3914 30.3091L66.5579 30.3266L71.7072 16.5876L75.6759 17.0048L77.8433 31.5428L78.0196 31.5614L82.8293 17.7566L87.4642 18.2438L79.5853 37.9679L75.4501 37.5333L73.0255 23.8412L72.8685 23.8247L67.6599 36.7145L63.5248 36.2799Z" fill="black"/>
</mask>
<g mask="url(#mask2_436_16372)">
<path d="M63.5247 36.2798L62.3095 36.4976L62.4694 37.4248L63.3941 37.522L63.5247 36.2798ZM59.9188 15.3485L60.0494 14.1063L58.4229 13.9353L58.7037 15.5663L59.9188 15.3485ZM64.5537 15.8357L65.777 15.6732L65.6529 14.6952L64.6843 14.5934L64.5537 15.8357ZM66.3913 30.309L65.1677 30.4714L65.2921 31.4495L66.2607 31.5513L66.3913 30.309ZM66.5578 30.3265L66.4272 31.5688L67.3728 31.6681L67.7108 30.7669L66.5578 30.3265ZM71.7071 16.5875L71.8377 15.3453L70.8921 15.2459L70.554 16.147L71.7071 16.5875ZM75.6758 17.0046L76.8954 16.815L76.7531 15.8619L75.8063 15.7624L75.6758 17.0046ZM77.8431 31.5427L76.6235 31.7324L76.7658 32.6855L77.7126 32.785L77.8431 31.5427ZM78.0194 31.5613L77.8889 32.8035L78.858 32.9054L79.1825 31.974L78.0194 31.5613ZM82.8291 17.7565L82.9597 16.5142L81.9905 16.4124L81.666 17.3437L82.8291 17.7565ZM87.464 18.2436L88.6073 18.7093L89.2211 17.1723L87.5946 17.0014L87.464 18.2436ZM79.5851 37.9678L79.4546 39.21L80.3793 39.3072L80.7284 38.4335L79.5851 37.9678ZM75.45 37.5332L74.2361 37.7568L74.3993 38.6787L75.3194 38.7754L75.45 37.5332ZM73.0254 23.8411L74.2392 23.6174L74.076 22.6955L73.1559 22.5988L73.0254 23.8411ZM72.8684 23.8246L72.9989 22.5823L72.0782 22.4856L71.7272 23.3542L72.8684 23.8246ZM67.6598 36.7144L67.5292 37.9566L68.45 38.0534L68.8011 37.1847L67.6598 36.7144ZM64.7395 36.0619L61.1339 15.1307L58.7037 15.5663L62.3095 36.4976L64.7395 36.0619ZM59.7882 16.5908L64.4232 17.0779L64.6843 14.5934L60.0494 14.1063L59.7882 16.5908ZM63.3305 15.9981L65.1677 30.4714L67.6145 30.1465L65.777 15.6732L63.3305 15.9981ZM66.2607 31.5513L66.4272 31.5688L66.6883 29.0843L66.5218 29.0668L66.2607 31.5513ZM67.7108 30.7669L72.8602 17.0279L70.554 16.147L65.4047 29.886L67.7108 30.7669ZM71.5765 17.8298L75.5452 18.2469L75.8063 15.7624L71.8377 15.3453L71.5765 17.8298ZM74.4562 17.1943L76.6235 31.7324L79.0627 31.3531L76.8954 16.815L74.4562 17.1943ZM77.7126 32.785L77.8889 32.8035L78.15 30.319L77.9737 30.3005L77.7126 32.785ZM79.1825 31.974L83.9919 18.1692L81.666 17.3437L76.8566 31.1486L79.1825 31.974ZM82.6986 18.9987L87.3335 19.4859L87.5946 17.0014L82.9597 16.5142L82.6986 18.9987ZM86.3208 17.7779L78.4422 37.5021L80.7284 38.4335L88.6073 18.7093L86.3208 17.7779ZM79.7157 36.7255L75.5806 36.2909L75.3194 38.7754L79.4546 39.21L79.7157 36.7255ZM76.6642 37.3095L74.2392 23.6174L71.8112 24.0647L74.2361 37.7568L76.6642 37.3095ZM73.1559 22.5988L72.9989 22.5823L72.7378 25.0668L72.8948 25.0833L73.1559 22.5988ZM71.7272 23.3542L66.5186 36.244L68.8011 37.1847L74.0099 24.2949L71.7272 23.3542ZM67.7904 35.4721L63.6552 35.0375L63.3941 37.522L67.5292 37.9566L67.7904 35.4721Z" fill="#141414"/>
</g>
</svg>
