<svg width="128" height="128" viewBox="0 0 128 128" fill="none" xmlns="http://www.w3.org/2000/svg">
<mask id="mask0_450_16864" style="mask-type:luminance" maskUnits="userSpaceOnUse" x="21" y="24" width="104" height="70">
<path d="M124.619 24.4011H21.7861V93.247H124.619V24.4011Z" fill="white"/>
</mask>
<g mask="url(#mask0_450_16864)">
<path d="M105.952 83.0446C105.952 84.3118 105.109 85.572 103.459 86.7633C101.816 87.9503 99.4177 89.03 96.4312 89.9416C90.4607 91.7647 82.1965 92.8959 73.0558 92.8959C63.9152 92.8959 55.6507 91.7647 49.6805 89.9416C46.6937 89.03 44.2968 87.9503 42.6527 86.7633C41.0023 85.572 40.1602 84.3118 40.1602 83.0446C40.1602 81.7772 41.0023 80.5171 42.6527 79.326C44.2968 78.1394 46.6937 77.0593 49.6805 76.1476C55.6507 74.3251 63.9152 73.1937 73.0558 73.1937C82.1965 73.1937 90.4607 74.3251 96.4312 76.1476C99.4177 77.0593 101.816 78.1394 103.459 79.326C105.109 80.5171 105.952 81.7772 105.952 83.0446Z" fill="#0071E4" stroke="#141414"/>
<path d="M39.8838 83.0445V56.4622L106.211 57.3387V83.0445H39.8838Z" fill="#0071E4"/>
<path d="M73.0591 74.6892L22.2251 50.3474V47.8253L123.947 47.9054V50.3474L73.0591 74.6892Z" fill="#0071E4" stroke="#141414" stroke-linejoin="bevel"/>
<path d="M22.063 47.8088L73.2031 24.6765L123.947 47.8088L73.2031 71.4917L22.063 47.8088Z" fill="#0071E4" stroke="#141414" stroke-linejoin="bevel"/>
<path d="M40.1392 58.8728V83.0446" stroke="#141414"/>
<path d="M105.937 58.8728V83.0446" stroke="#141414"/>
<path d="M101.88 58.9368L74.3406 47.8998L73.252 49.12L100.363 59.9839V74.6147H101.88V58.9368Z" fill="#B73DC2" stroke="#141414"/>
<path d="M99.8285 76.094L100.46 75.5805C100.867 75.2487 101.452 75.2495 101.861 75.582L102.487 76.0947C102.857 76.3963 102.99 76.8998 102.817 77.3434L102.189 78.9622C101.826 79.9008 100.493 79.9019 100.127 78.9639L99.4973 77.346C99.3233 76.9012 99.4572 76.3959 99.8285 76.094Z" fill="#B73DC2" stroke="#141414"/>
<path d="M101.156 76.5531C101.824 76.5531 102.367 76.013 102.367 75.3467C102.367 74.6804 101.824 74.1403 101.156 74.1403C100.487 74.1403 99.9443 74.6804 99.9443 75.3467C99.9443 76.013 100.487 76.5531 101.156 76.5531Z" fill="#B73DC2" stroke="#141414"/>
</g>
<path d="M45.2781 86.5821L42.8026 87.0599C42.2095 87.1746 41.634 86.7914 41.5056 86.1965C41.3812 85.6201 41.7207 85.0452 42.2825 84.8806L44.2771 84.2962C44.4966 84.2319 44.7241 84.1992 44.9528 84.1992H45.9634C46.1585 84.1992 46.3528 84.2231 46.5421 84.27L49.0516 84.8928C49.6654 85.0451 50.0274 85.6848 49.8451 86.2951C49.6807 86.8453 49.128 87.179 48.5692 87.0654L46.2115 86.5866C45.9036 86.524 45.5866 86.5226 45.2781 86.5821Z" fill="#B73DC2"/>
<path d="M38.9331 86.938C42.5368 83.2143 48.4529 83.1404 52.147 86.773" stroke="#141414"/>
<path d="M38.9331 89.5127C42.5368 85.789 48.4529 85.7151 52.147 89.3471" stroke="#141414"/>
<path fill-rule="evenodd" clip-rule="evenodd" d="M30.7193 98.9294C36.9163 98.9294 41.9399 93.8658 41.9399 87.6192C41.9399 81.3727 36.9163 76.309 30.7193 76.309C24.5226 76.309 19.499 81.3727 19.499 87.6192C19.499 93.8658 24.5226 98.9294 30.7193 98.9294ZM30.7193 94.719C34.6097 94.719 37.7633 91.5408 37.7633 87.6192C37.7633 83.6979 34.6097 80.519 30.7193 80.519C26.8292 80.519 23.6755 83.6979 23.6755 87.6192C23.6755 91.5408 26.8292 94.719 30.7193 94.719Z" fill="#B73DC2"/>
<mask id="mask1_450_16864" style="mask-type:luminance" maskUnits="userSpaceOnUse" x="19" y="76" width="23" height="23">
<path fill-rule="evenodd" clip-rule="evenodd" d="M30.7193 98.9294C36.9163 98.9294 41.9399 93.8658 41.9399 87.6192C41.9399 81.3727 36.9163 76.309 30.7193 76.309C24.5226 76.309 19.499 81.3727 19.499 87.6192C19.499 93.8658 24.5226 98.9294 30.7193 98.9294ZM30.7193 94.719C34.6097 94.719 37.7633 91.5408 37.7633 87.6192C37.7633 83.6979 34.6097 80.519 30.7193 80.519C26.8292 80.519 23.6755 83.6979 23.6755 87.6192C23.6755 91.5408 26.8292 94.719 30.7193 94.719Z" fill="white"/>
</mask>
<g mask="url(#mask1_450_16864)">
<path d="M40.73 87.6191C40.73 93.1922 36.2483 97.709 30.7199 97.709V100.149C37.5852 100.149 43.1508 94.5395 43.1508 87.6191H40.73ZM30.7199 77.5291C36.2483 77.5291 40.73 82.0465 40.73 87.6191H43.1508C43.1508 80.6989 37.5852 75.089 30.7199 75.089V77.5291ZM20.7098 87.6191C20.7098 82.0465 25.1915 77.5291 30.7199 77.5291V75.089C23.8545 75.089 18.2891 80.6989 18.2891 87.6191H20.7098ZM30.7199 97.709C25.1915 97.709 20.7098 93.1922 20.7098 87.6191H18.2891C18.2891 94.5395 23.8545 100.149 30.7199 100.149V97.709ZM36.5533 87.6191C36.5533 90.8671 33.9416 93.4989 30.7199 93.4989V95.939C35.2787 95.939 38.9741 92.2144 38.9741 87.6191H36.5533ZM30.7199 81.7391C33.9416 81.7391 36.5533 84.3717 36.5533 87.6191H38.9741C38.9741 83.0241 35.2787 79.299 30.7199 79.299V81.7391ZM24.8864 87.6191C24.8864 84.3717 27.4981 81.7391 30.7199 81.7391V79.299C26.1613 79.299 22.4657 83.0241 22.4657 87.6191H24.8864ZM30.7199 93.4989C27.4981 93.4989 24.8864 90.8671 24.8864 87.6191H22.4657C22.4657 92.2144 26.1613 95.939 30.7199 95.939V93.4989Z" fill="#141414"/>
</g>
<path fill-rule="evenodd" clip-rule="evenodd" d="M60.6506 98.9294C66.8476 98.9294 71.871 93.8658 71.871 87.6192C71.871 81.3727 66.8476 76.309 60.6506 76.309C54.4538 76.309 49.4302 81.3727 49.4302 87.6192C49.4302 93.8658 54.4538 98.9294 60.6506 98.9294ZM60.6506 94.719C64.5407 94.719 67.6945 91.5408 67.6945 87.6192C67.6945 83.6979 64.5407 80.519 60.6506 80.519C56.7604 80.519 53.6068 83.6979 53.6068 87.6192C53.6068 91.5408 56.7604 94.719 60.6506 94.719Z" fill="#B73DC2"/>
<mask id="mask2_450_16864" style="mask-type:luminance" maskUnits="userSpaceOnUse" x="49" y="76" width="23" height="23">
<path fill-rule="evenodd" clip-rule="evenodd" d="M60.6506 98.9294C66.8476 98.9294 71.871 93.8658 71.871 87.6192C71.871 81.3727 66.8476 76.309 60.6506 76.309C54.4538 76.309 49.4302 81.3727 49.4302 87.6192C49.4302 93.8658 54.4538 98.9294 60.6506 98.9294ZM60.6506 94.719C64.5407 94.719 67.6945 91.5408 67.6945 87.6192C67.6945 83.6979 64.5407 80.519 60.6506 80.519C56.7604 80.519 53.6068 83.6979 53.6068 87.6192C53.6068 91.5408 56.7604 94.719 60.6506 94.719Z" fill="white"/>
</mask>
<g mask="url(#mask2_450_16864)">
<path d="M70.6611 87.6191C70.6611 93.1922 66.1795 97.709 60.6511 97.709V100.149C67.5165 100.149 73.0818 94.5395 73.0818 87.6191H70.6611ZM60.6511 77.5291C66.1795 77.5291 70.6611 82.0465 70.6611 87.6191H73.0818C73.0818 80.6989 67.5165 75.089 60.6511 75.089V77.5291ZM50.641 87.6191C50.641 82.0465 55.1226 77.5291 60.6511 77.5291V75.089C53.7858 75.089 48.2202 80.6989 48.2202 87.6191H50.641ZM60.6511 97.709C55.1226 97.709 50.641 93.1922 50.641 87.6191H48.2202C48.2202 94.5395 53.7858 100.149 60.6511 100.149V97.709ZM66.4845 87.6191C66.4845 90.8671 63.8729 93.4989 60.6511 93.4989V95.939C65.2097 95.939 68.9053 92.2144 68.9053 87.6191H66.4845ZM60.6511 81.7391C63.8729 81.7391 66.4845 84.3717 66.4845 87.6191H68.9053C68.9053 83.0241 65.2097 79.299 60.6511 79.299V81.7391ZM54.8176 87.6191C54.8176 84.3717 57.4294 81.7391 60.6511 81.7391V79.299C56.0923 79.299 52.3969 83.0241 52.3969 87.6191H54.8176ZM60.6511 93.4989C57.4294 93.4989 54.8176 90.8671 54.8176 87.6191H52.3969C52.3969 92.2144 56.0923 95.939 60.6511 95.939V93.4989Z" fill="#141414"/>
</g>
<path d="M15.365 85.8615H20.1139V89.3769H15.365C15.0307 89.3769 14.7598 89.104 14.7598 88.7669V86.4715C14.7598 86.1345 15.0307 85.8615 15.365 85.8615Z" fill="#FFD600" stroke="#141414"/>
<path d="M76.1068 85.8615H71.3579V89.3769H76.1068C76.4411 89.3769 76.712 89.104 76.712 88.7669V86.4715C76.712 86.1345 76.4411 85.8615 76.1068 85.8615Z" fill="#FFD600" stroke="#141414"/>
<path d="M65.5661 87.7636C66.2081 87.2764 65.8884 85.7567 64.852 84.3692C63.8156 82.9816 62.4551 82.2518 61.813 82.739C61.1712 83.2263 61.4909 84.746 62.5272 86.1334C63.5637 87.5214 64.9242 88.2508 65.5661 87.7636Z" fill="white"/>
</svg>
