<svg xmlns="http://www.w3.org/2000/svg" width="26" height="21" fill="none"><path fill="#fff" d="M1.752 9.028c8-3.416 18.354-7.58 19.783-8.155 3.749-1.509 4.9-1.22 4.326 2.12-.412 2.401-1.6 10.35-2.548 15.298-.562 2.933-1.823 3.281-3.806 2.012-.954-.61-5.767-3.7-6.812-4.424-.953-.661-2.268-1.456-.619-3.022.587-.558 4.434-4.122 7.432-6.897.393-.364-.1-.963-.554-.67-4.04 2.6-9.642 6.208-10.355 6.678-1.077.71-2.112 1.035-3.968.517-1.403-.39-2.774-.857-3.307-1.035-2.055-.684-1.567-1.57.428-2.422Z"/></svg>