<svg xmlns="http://www.w3.org/2000/svg" width="28" height="20" fill="none"><path fill="#fff" d="M27.218 3.438C26.96 2.063 25.726 1.062 24.295.75 22.153.312 18.19 0 13.901 0 9.615 0 5.588.313 3.444.75 2.014 1.062.779 2 .52 3.438.26 5 0 7.188 0 10c0 2.813.259 5 .584 6.563.261 1.374 1.494 2.375 2.923 2.688 2.274.436 6.171.749 10.46.749 4.289 0 8.186-.313 10.46-.75 1.429-.312 2.662-1.25 2.923-2.688.26-1.562.584-3.813.65-6.562-.132-2.813-.457-5-.782-6.563ZM11.394 14.374v-8.75L19.32 10l-7.925 4.375Z"/></svg>